<?xml version="1.0" encoding="UTF-8"?>
<!DOCTYPE svg PUBLIC "-//W3C//DTD SVG 1.1//EN" "http://www.w3.org/Graphics/SVG/1.1/DTD/svg11.dtd">
<svg xmlns="http://www.w3.org/2000/svg" version="1.1" width="225px" height="225px" style="shape-rendering:geometricPrecision; text-rendering:geometricPrecision; image-rendering:optimizeQuality; fill-rule:evenodd; clip-rule:evenodd" xmlns:xlink="http://www.w3.org/1999/xlink">
<g><path style="opacity:1" fill="#fefefe" d="M -0.5,-0.5 C 74.5,-0.5 149.5,-0.5 224.5,-0.5C 224.5,74.5 224.5,149.5 224.5,224.5C 149.5,224.5 74.5,224.5 -0.5,224.5C -0.5,149.5 -0.5,74.5 -0.5,-0.5 Z"/></g>
<g><path style="opacity:1" fill="#92a767" d="M 124.5,6.5 C 161.375,5.40225 181.708,23.0689 185.5,59.5C 184.671,82.1616 174.004,98.3282 153.5,108C 148.917,108.934 147.417,107.1 149,102.5C 172.679,91.1413 182.013,72.4746 177,46.5C 171.022,28.191 158.522,17.3576 139.5,14C 114.752,12.6195 97.919,23.4528 89,46.5C 88.0039,50.4305 87.5039,54.4305 87.5,58.5C 87.8573,64.23 88.3573,69.8967 89,75.5C 87,76.8333 85,76.8333 83,75.5C 76.4617,48.7644 84.6284,27.9311 107.5,13C 113.054,10.2101 118.721,8.04347 124.5,6.5 Z"/></g>
<g><path style="opacity:1" fill="#697849" d="M 163.5,67.5 C 157.559,69.4238 151.559,71.2572 145.5,73C 141.564,77.0959 138.23,81.5959 135.5,86.5C 133.833,86.5 132.167,86.5 130.5,86.5C 130.5,84.5 130.5,82.5 130.5,80.5C 130.5,80.1667 130.5,79.8333 130.5,79.5C 134.629,75.2657 138.296,70.5991 141.5,65.5C 139.753,60.5943 138.419,55.5943 137.5,50.5C 140.102,48.1904 143.102,46.3571 146.5,45C 152.155,43.7247 157.822,42.5581 163.5,41.5C 164.775,50.1952 164.775,58.8618 163.5,67.5 Z"/></g>
<g><path style="opacity:1" fill="#768753" d="M 105.5,51.5 C 108.253,55.3197 111.253,58.9864 114.5,62.5C 115.106,59.6601 116.439,57.3268 118.5,55.5C 120.911,56.517 122.578,58.1837 123.5,60.5C 121.597,63.5022 120.763,66.8355 121,70.5C 123.952,74.0992 127.118,77.4325 130.5,80.5C 130.5,82.5 130.5,84.5 130.5,86.5C 128.833,86.5 127.167,86.5 125.5,86.5C 117.511,76.5132 109.178,66.8465 100.5,57.5C 100.5,55.5 100.5,53.5 100.5,51.5C 102.167,51.5 103.833,51.5 105.5,51.5 Z"/></g>
<g><path style="opacity:1" fill="#91a566" d="M 105.5,51.5 C 110.289,51.6538 114.622,52.9871 118.5,55.5C 116.439,57.3268 115.106,59.6601 114.5,62.5C 111.253,58.9864 108.253,55.3197 105.5,51.5 Z"/></g>
<g><path style="opacity:1" fill="#768753" d="M 137.5,50.5 C 138.419,55.5943 139.753,60.5943 141.5,65.5C 138.296,70.5991 134.629,75.2657 130.5,79.5C 130.495,75.4659 130.162,71.4659 129.5,67.5C 129.776,60.6191 132.442,54.9525 137.5,50.5 Z"/></g>
<g><path style="opacity:1" fill="#90a566" d="M 100.5,57.5 C 109.178,66.8465 117.511,76.5132 125.5,86.5C 108.261,84.5901 99.9279,74.9235 100.5,57.5 Z"/></g>
<g><path style="opacity:1" fill="#90a565" d="M 123.5,60.5 C 125.737,62.6471 127.737,64.9804 129.5,67.5C 130.162,71.4659 130.495,75.4659 130.5,79.5C 130.5,79.8333 130.5,80.1667 130.5,80.5C 127.118,77.4325 123.952,74.0992 121,70.5C 120.763,66.8355 121.597,63.5022 123.5,60.5 Z"/></g>
<g><path style="opacity:1" fill="#778854" d="M 163.5,67.5 C 158.555,80.0858 149.222,86.4191 135.5,86.5C 138.23,81.5959 141.564,77.0959 145.5,73C 151.559,71.2572 157.559,69.4238 163.5,67.5 Z"/></g>
<g><path style="opacity:1" fill="#dcdbd6" d="M 59.5,94.5 C 52.5,94.5 45.5,94.5 38.5,94.5C 38.5,89.8333 38.5,85.1667 38.5,80.5C 45.5,80.5 52.5,80.5 59.5,80.5C 59.5,85.1667 59.5,89.8333 59.5,94.5 Z"/></g>
<g><path style="opacity:1" fill="#dcdbd6" d="M 94.5,101.5 C 87.5,101.5 80.5,101.5 73.5,101.5C 73.5,96.8333 73.5,92.1667 73.5,87.5C 80.5,87.5 87.5,87.5 94.5,87.5C 94.5,92.1667 94.5,96.8333 94.5,101.5 Z"/></g>
<g><path style="opacity:1" fill="#91a666" d="M 38.5,94.5 C 45.5,94.5 52.5,94.5 59.5,94.5C 59.5,99.1667 59.5,103.833 59.5,108.5C 52.5,108.5 45.5,108.5 38.5,108.5C 38.5,103.833 38.5,99.1667 38.5,94.5 Z"/></g>
<g><path style="opacity:1" fill="#8fa563" d="M 73.5,101.5 C 80.5,101.5 87.5,101.5 94.5,101.5C 94.5,106.167 94.5,110.833 94.5,115.5C 87.5,115.5 80.5,115.5 73.5,115.5C 73.5,110.833 73.5,106.167 73.5,101.5 Z"/></g>
<g><path style="opacity:1" fill="#dcdbd6" d="M 38.5,108.5 C 45.5,108.5 52.5,108.5 59.5,108.5C 59.5,117.833 59.5,127.167 59.5,136.5C 52.5,136.5 45.5,136.5 38.5,136.5C 38.5,127.167 38.5,117.833 38.5,108.5 Z"/></g>
<g><path style="opacity:1" fill="#dbdad5" d="M 178.5,213.5 C 178.5,210.167 178.5,206.833 178.5,203.5C 178.5,201.167 178.5,198.833 178.5,196.5C 178.5,194.167 178.5,191.833 178.5,189.5C 178.5,187.167 178.5,184.833 178.5,182.5C 178.5,178.833 178.5,175.167 178.5,171.5C 157.5,171.5 136.5,171.5 115.5,171.5C 115.5,175.167 115.5,178.833 115.5,182.5C 115.5,184.833 115.5,187.167 115.5,189.5C 115.5,191.833 115.5,194.167 115.5,196.5C 115.5,198.833 115.5,201.167 115.5,203.5C 115.5,206.833 115.5,210.167 115.5,213.5C 108.5,213.5 101.5,213.5 94.5,213.5C 80.5,214.833 66.5,214.833 52.5,213.5C 45.5,213.5 38.5,213.5 31.5,213.5C 31.5,192.5 31.5,171.5 31.5,150.5C 57.1667,150.5 82.8333,150.5 108.5,150.5C 108.5,145.833 108.5,141.167 108.5,136.5C 108.334,128.493 108.5,120.493 109,112.5C 118.297,120.129 127.297,128.129 136,136.5C 136.333,128.5 136.667,120.5 137,112.5C 146.297,120.129 155.297,128.129 164,136.5C 164.333,128.5 164.667,120.5 165,112.5C 173.833,120 182.667,127.5 191.5,135C 192.495,161.092 192.828,187.259 192.5,213.5C 187.833,213.5 183.167,213.5 178.5,213.5 Z"/></g>
<g><path style="opacity:1" fill="#dcdbd6" d="M 73.5,115.5 C 80.5,115.5 87.5,115.5 94.5,115.5C 94.5,122.5 94.5,129.5 94.5,136.5C 87.5,136.5 80.5,136.5 73.5,136.5C 73.5,129.5 73.5,122.5 73.5,115.5 Z"/></g>
<g><path style="opacity:1" fill="#90a565" d="M 38.5,136.5 C 45.5,136.5 52.5,136.5 59.5,136.5C 64.1667,136.5 68.8333,136.5 73.5,136.5C 80.5,136.5 87.5,136.5 94.5,136.5C 99.1667,136.5 103.833,136.5 108.5,136.5C 108.5,141.167 108.5,145.833 108.5,150.5C 82.8333,150.5 57.1667,150.5 31.5,150.5C 30.325,150.719 29.325,150.386 28.5,149.5C 30.4142,145.238 32.4142,141.071 34.5,137C 35.7932,136.51 37.1266,136.343 38.5,136.5 Z"/></g>
<g><path style="opacity:1" fill="#92a668" d="M 178.5,182.5 C 157.5,182.5 136.5,182.5 115.5,182.5C 115.5,178.833 115.5,175.167 115.5,171.5C 136.5,171.5 157.5,171.5 178.5,171.5C 178.5,175.167 178.5,178.833 178.5,182.5 Z"/></g>
<g><path style="opacity:1" fill="#788856" d="M 55.5,175.5 C 57.8333,175.5 60.1667,175.5 62.5,175.5C 62.5,177.833 62.5,180.167 62.5,182.5C 60.1667,182.5 57.8333,182.5 55.5,182.5C 55.5,180.167 55.5,177.833 55.5,175.5 Z"/></g>
<g><path style="opacity:1" fill="#798957" d="M 83.5,175.5 C 85.8333,175.5 88.1667,175.5 90.5,175.5C 90.5,177.833 90.5,180.167 90.5,182.5C 88.1667,182.5 85.8333,182.5 83.5,182.5C 83.5,180.167 83.5,177.833 83.5,175.5 Z"/></g>
<g><path style="opacity:1" fill="#758652" d="M 115.5,182.5 C 136.5,182.5 157.5,182.5 178.5,182.5C 178.5,184.833 178.5,187.167 178.5,189.5C 157.5,189.5 136.5,189.5 115.5,189.5C 115.5,187.167 115.5,184.833 115.5,182.5 Z"/></g>
<g><path style="opacity:1" fill="#90a565" d="M 115.5,189.5 C 136.5,189.5 157.5,189.5 178.5,189.5C 178.5,191.833 178.5,194.167 178.5,196.5C 157.5,196.5 136.5,196.5 115.5,196.5C 115.5,194.167 115.5,191.833 115.5,189.5 Z"/></g>
<g><path style="opacity:1" fill="#91a667" d="M 52.5,213.5 C 52.3339,207.824 52.5006,202.157 53,196.5C 57.8376,190.964 62.1709,191.297 66,197.5C 66.4994,202.823 66.666,208.156 66.5,213.5C 61.8333,213.5 57.1667,213.5 52.5,213.5 Z"/></g>
<g><path style="opacity:1" fill="#90a565" d="M 94.5,213.5 C 89.8333,213.5 85.1667,213.5 80.5,213.5C 80.3339,207.824 80.5006,202.157 81,196.5C 83.9087,193.606 87.4087,192.773 91.5,194C 92.7014,194.903 93.5348,196.069 94,197.5C 94.4994,202.823 94.666,208.156 94.5,213.5 Z"/></g>
<g><path style="opacity:1" fill="#758652" d="M 115.5,196.5 C 136.5,196.5 157.5,196.5 178.5,196.5C 178.5,198.833 178.5,201.167 178.5,203.5C 157.5,203.5 136.5,203.5 115.5,203.5C 115.5,201.167 115.5,198.833 115.5,196.5 Z"/></g>
<g><path style="opacity:1" fill="#90a564" d="M 115.5,203.5 C 136.5,203.5 157.5,203.5 178.5,203.5C 178.5,206.833 178.5,210.167 178.5,213.5C 157.5,213.5 136.5,213.5 115.5,213.5C 115.5,210.167 115.5,206.833 115.5,203.5 Z"/></g>
</svg>
